<?xml version="1.0" encoding="utf-8"?>
<!-- Generator: Adobe Illustrator 27.4.1, SVG Export Plug-In . SVG Version: 6.00 Build 0)  -->
<svg version="1.1" id="Calque_2_00000074415242607928926580000015534235608615333789_"
	 xmlns="http://www.w3.org/2000/svg" xmlns:xlink="http://www.w3.org/1999/xlink" x="0px" y="0px" viewBox="0 0 332 142.9"
	 style="enable-background:new 0 0 332 142.9;" xml:space="preserve">
<style type="text/css">
	.st0{fill:#FFFFFF;}
	.st1{fill:#C00F0C;}
	.st2{fill:#43343B;}
	.st3{fill:#FE801A;}
</style>
<rect x="-10.1" y="-21.9" class="st0" width="415.3" height="178"/>
<g>
	<g>
		<path class="st1" d="M127.8,90.5h-3.4v6.1h3.5c1.9,0,3.5-1.1,3.5-3.1C131.4,91.5,129.8,90.5,127.8,90.5 M128.1,98.3h-3.7v7.9h-2.1
			V88.9h6.1c2.8,0,5.1,1.4,5.1,4.7C133.5,96.8,131,98.3,128.1,98.3"/>
	</g>
	<path class="st1" d="M141.8,95l2.2,6.5h-4.3L141.8,95z M140.6,93.3l-4.6,12.8h2.1l1.1-3.2h5.3l1.1,3.2h2.2L143,93.3
		C143,93.3,140.6,93.3,140.6,93.3z"/>
	<g>
		<path class="st1" d="M157.6,106.5c-2.8,0-5.4-1.5-5.4-5.4v-7.8h1.9v8.1c0,1.8,1.1,3.6,3.5,3.6c2.4,0,3.4-1.8,3.4-3.6v-8.1h1.9v7.8
			C162.9,105,160.3,106.5,157.6,106.5"/>
	</g>
	<polygon class="st1" points="169.3,93.3 169.3,106.1 177.7,106.1 177.7,104.6 171.2,104.6 171.2,93.3 	"/>
	<g>
		<path class="st1" d="M196.5,106.5c-2.3,0-4.4-0.8-5.4-2.2l1-1.6c0.7,0.8,2.1,2.1,4.5,2.1c2.3,0,3.8-1.6,3.8-3.1
			c0-1.9-1.3-2.5-2-2.8L194,97c-1.7-0.7-2.7-2-2.7-3.8c0-3,2.8-4.7,5.4-4.7c2,0,3.7,0.5,5,1.9l-1,1.6c-0.4-0.6-1.7-1.8-4.1-1.8
			c-2.1,0-3.3,1.3-3.3,2.9c0,1.7,1.2,2.2,2.4,2.7l3.2,1.4c1.1,0.5,3.4,1.5,3.4,4.5C202.4,103.2,201.2,106.5,196.5,106.5"/>
	</g>
	<path class="st1" d="M212.4,95l2.2,6.5h-4.4L212.4,95z M211.3,93.3l-4.6,12.8h2l1.1-3.2h5.3l1.1,3.2h2.2l-4.7-12.8
		C213.7,93.3,211.3,93.3,211.3,93.3z"/>
	<g>
		<path class="st1" d="M228.2,100.2h-2.7v4.4h2.7c1.4,0,2.9-0.4,2.9-2.2C231,100.8,229.8,100.2,228.2,100.2 M227.9,94.8h-2.4v3.9
			h2.5c1.5,0,2.7-0.4,2.7-2.1C230.7,95.3,229.4,94.8,227.9,94.8 M228.4,106.1h-4.8V93.3h4.8c2.2,0,4.3,1,4.3,3.2
			c0,1.4-0.8,2.5-2.5,2.9c1.7,0.4,2.8,1,2.8,3.1C233,104.9,231,106.1,228.4,106.1"/>
	</g>
	<path class="st1" d="M243.1,95l2.2,6.5H241L243.1,95z M242,93.3l-4.6,12.8h2l1.1-3.2h5.3l1.1,3.2h2.2l-4.7-12.8
		C244.4,93.3,242,93.3,242,93.3z"/>
	<polygon class="st1" points="251.3,93.3 251.3,94.9 255.7,94.9 255.7,106.1 257.6,106.1 257.6,94.9 262,94.9 262,93.3 	"/>
	<rect x="267.4" y="93.3" class="st1" width="1.9" height="12.8"/>
	<polygon class="st1" points="276,93.3 276,106.1 284.6,106.1 284.6,104.6 277.9,104.6 277.9,100.2 283.8,100.2 283.8,98.7 
		277.9,98.7 277.9,94.8 284.3,94.8 284.3,93.3 	"/>
	<g>
		<path class="st1" d="M294.3,94.8H292v4.1h1.5c2.8,0,3.7-0.7,3.7-2.1C297.2,95.4,295.8,94.8,294.3,94.8 M297.7,106.1l-2.8-3.9
			c-0.9-1.2-1.3-1.8-2.1-1.8H292v5.8h-1.9V93.3h4.7c2.1,0,4.3,1.1,4.3,3.4c0,2.3-2,3.4-4.1,3.6c0.5,0.2,0.9,0.6,1.2,0.9
			c0.3,0.3,0.5,0.7,0.6,0.8l3.1,4.2L297.7,106.1L297.7,106.1z"/>
		<path class="st2" d="M129.6,54.2c-3.7,0-7.2-1.3-7.2-7.3V36.6h3.2v10.7c0,2.8,1.3,4.6,4,4.6c2.6,0,3.9-1.7,3.9-4.6V36.6h3.2V47
			C136.7,52.5,133.2,54.2,129.6,54.2"/>
	</g>
	<polygon class="st2" points="156,36.6 156,49.5 148.8,36.6 144.6,36.6 144.6,53.9 147.7,53.9 147.7,41 155,53.9 159.2,53.9 
		159.2,36.6 	"/>
	<rect x="167.2" y="36.6" class="st2" width="3.2" height="17.3"/>
	<polygon class="st2" points="190.4,36.6 185.4,50.6 180.3,36.6 176.7,36.6 183.6,53.9 187,53.9 193.9,36.6 	"/>
	<polygon class="st2" points="200.1,36.6 200.1,53.9 212.1,53.9 212.1,51.3 203.3,51.3 203.3,46.1 211.1,46.1 211.1,43.6 
		203.3,43.6 203.3,39.1 211.7,39.1 211.7,36.6 	"/>
	<g>
		<path class="st2" d="M224.9,39h-2.8v5h2.8c2.5,0,3.1-1.2,3.1-2.6C228,40.1,227,39,224.9,39 M228.9,53.9l-3.5-5.2
			c-0.9-1.3-1.7-2.3-2.5-2.3h-0.8v7.5h-3.2V36.6h6.6c3,0,5.8,1.6,5.8,4.8c0,3.3-2.9,4.5-4.4,4.7c0.5,0.3,1.1,1.2,1.4,1.5l4.5,6.4
			C232.7,53.9,228.9,53.9,228.9,53.9z"/>
		<path class="st2" d="M243.8,54.2c-3.4,0-5.4-1.6-6.2-2.5l1.4-2.2c1.2,1.4,2.7,2.4,4.9,2.4c2.2,0,3.2-1.2,3.2-2.4
			c0-1.4-1-2-2.4-2.6l-3.4-1.5c-1.9-0.8-3.3-2.2-3.3-4.3c0-3.3,3.3-5,6.1-5c2.3,0,4.5,0.9,5.7,2.4l-1.4,2.2c-1-1.2-2.2-2.2-4.4-2.2
			c-1.9,0-2.8,1.1-2.8,2.1c0,1.2,1.1,1.8,2.2,2.3l3.4,1.5c2,0.8,3.5,2.1,3.5,4.7C250.4,50.9,249,54.2,243.8,54.2"/>
	</g>
	<rect x="257.4" y="36.6" class="st2" width="3.2" height="17.3"/>
	<polygon class="st2" points="266.8,36.6 266.8,39.1 272.6,39.1 272.6,53.9 275.9,53.9 275.9,39.1 281.7,39.1 281.7,36.6 	"/>
	<polygon class="st2" points="287.9,36.6 287.9,53.9 299.8,53.9 299.8,51.3 291.1,51.3 291.1,46.1 298.8,46.1 298.8,43.6 
		291.1,43.6 291.1,39.1 299.5,39.1 299.5,36.6 	"/>
	<polygon class="st2" points="122.4,61.4 122.4,64.4 129.1,64.4 129.1,81.4 132.8,81.4 132.8,64.4 139.5,64.4 139.5,61.4 	"/>
	<g>
		<path class="st2" d="M150.2,63.7c-3.7,0-4.9,3.9-4.9,7.6c0,4,0.9,7.8,4.9,7.8c3.8,0,4.9-3.5,4.9-7.8
			C155.1,67.1,154.1,63.7,150.2,63.7 M150.2,81.8c-6,0-8.8-4.5-8.8-10.5c0-7,4.3-10.3,8.8-10.3c4.8,0,8.8,2.8,8.8,10.3
			C159,78.4,155.3,81.8,150.2,81.8"/>
		<path class="st2" d="M170.9,81.8c-4.3,0-8.3-1.5-8.3-8.4v-12h3.7v12.3c0,3.2,1.5,5.3,4.6,5.3c3,0,4.5-2,4.5-5.3V61.4h3.7v12
			C179.1,79.8,175,81.8,170.9,81.8"/>
	</g>
	<polygon class="st2" points="183.7,61.4 183.7,81.4 197.3,81.4 197.3,78.5 187.4,78.5 187.4,61.4 	"/>
	<g>
		<path class="st2" d="M207.7,63.7c-3.7,0-4.9,3.9-4.9,7.6c0,4,0.9,7.8,4.9,7.8c3.8,0,4.9-3.5,4.9-7.8
			C212.6,67.1,211.6,63.7,207.7,63.7 M207.7,81.8c-6,0-8.8-4.5-8.8-10.5c0-7,4.3-10.3,8.8-10.3c4.8,0,8.8,2.8,8.8,10.3
			C216.5,78.4,212.8,81.8,207.7,81.8"/>
		<path class="st2" d="M228.4,81.8c-4.3,0-8.3-1.5-8.3-8.4v-12h3.7v12.3c0,3.2,1.5,5.3,4.6,5.3c3,0,4.5-2,4.5-5.3V61.4h3.7v12
			C236.6,79.8,232.5,81.8,228.4,81.8"/>
		<path class="st2" d="M246.8,81.8c-3.9,0-6.2-1.8-7.1-2.9l1.6-2.5c1.4,1.6,3.1,2.8,5.6,2.8c2.5,0,3.7-1.4,3.7-2.7
			c0-1.6-1.2-2.3-2.7-3l-3.9-1.7c-2.1-0.9-3.8-2.5-3.8-5c0-3.9,3.8-5.7,7-5.7c2.7,0,5.2,1,6.6,2.7l-1.6,2.5c-1.1-1.4-2.5-2.5-5-2.5
			c-2.2,0-3.2,1.3-3.2,2.4c0,1.4,1.3,2.1,2.5,2.6l3.9,1.7c2.3,1,4.1,2.4,4.1,5.4C254.4,78,252.8,81.8,246.8,81.8"/>
	</g>
	<polygon class="st2" points="257.9,61.4 257.9,81.4 271.6,81.4 271.6,78.5 261.6,78.5 261.6,72.5 270.5,72.5 270.5,69.6 
		261.6,69.6 261.6,64.4 271.3,64.4 271.3,61.4 	"/>
	<rect x="280.4" y="61.4" class="st2" width="3.7" height="20"/>
	<rect x="288.3" y="61.4" class="st2" width="3.7" height="20"/>
	<rect x="296.1" y="61.4" class="st2" width="3.7" height="20"/>
	<polygon class="st2" points="292.9,31.6 291.1,35.2 293.1,35.2 296,31.6 	"/>
	<rect x="73.6" y="61.6" class="st3" width="3.4" height="19.5"/>
	<rect x="62.6" y="61.6" class="st3" width="3.4" height="19.5"/>
	<rect x="68.1" y="61.6" class="st3" width="3.4" height="19.5"/>
	<g>
		<path class="st2" d="M68.5,115.1c-24.1,0-43.7-19.6-43.7-43.6c0-24.1,19.6-43.7,43.7-43.7c24.1,0,43.7,19.6,43.7,43.7
			C112.2,95.5,92.6,115.1,68.5,115.1 M68.5,25.1c-25.5,0-46.3,20.8-46.3,46.3c0,25.5,20.8,46.3,46.3,46.3
			c25.5,0,46.3-20.8,46.3-46.3C114.8,45.9,94.1,25.1,68.5,25.1"/>
		<path class="st2" d="M46.7,61.2c0-7.5,6.1-13.5,13.5-13.5h9.7V37.1v-2.6c-0.4,0-0.9,0-1.3,0c-0.4,0-0.9,0-1.3,0
			c-19.8,0.7-35.7,17-35.7,37c0,16.7,11.1,30.9,26.4,35.5c0.9,0.3,1.8,0.5,2.6,0.7v-2.7V88.5h16.3c3.8,0,6.9-3.1,6.9-6.9
			c0-2.8-1.7-5.3-4.2-6.3v3.1c0.9,0.8,1.5,1.9,1.5,3.2c0,2.3-1.9,4.2-4.2,4.2h-19v18.3c-13.8-4.5-23.8-17.4-23.8-32.7
			c0-18.5,14.7-33.7,33.1-34.4v8h-7c-8.9,0-16.2,7.2-16.2,16.2c0,8.8,7.1,16,16,16.1v-2.6C52.6,74.6,46.7,68.6,46.7,61.2"/>
		<path class="st2" d="M68.5,110.5c-1.1,0-2.2-0.1-3.3-0.2v-2v-2.6V93.2h11.7c6.3,0,11.5-5.2,11.5-11.5c0-5.4-3.8-10-8.8-11.2v2.7
			c3.6,1.1,6.2,4.5,6.2,8.5c0,4.9-4,8.9-8.9,8.9H62.6v14.8v2.7v2C43.9,107.2,29.5,91,29.5,71.5c0-21.5,17.5-39,39-39
			c1.1,0,2.2,0.1,3.3,0.2v2v2.6v12.5H60.2c-6.4,0-11.5,5.2-11.5,11.5c0,6.3,5.1,11.4,11.3,11.5v-2.6c-4.8-0.1-8.7-4-8.7-8.9
			c0-4.9,4-8.9,8.9-8.9h14.3V37.6v-2.7v-2c18.7,2.9,33.1,19.1,33.1,38.6C107.5,93,90,110.5,68.5,110.5 M68.5,29.8
			c-23,0-41.7,18.7-41.7,41.7c0,23,18.7,41.7,41.7,41.7c23,0,41.7-18.7,41.7-41.7C110.2,48.5,91.5,29.8,68.5,29.8"/>
		<path class="st2" d="M55.9,61.2c0-2.3,1.9-4.2,4.2-4.2h18.9V38.8c13.8,4.5,23.8,17.4,23.8,32.7c0,18.5-14.7,33.7-33.1,34.4v-8h7
			c8.9,0,16.2-7.3,16.2-16.2c0-8-5.8-14.6-13.5-15.9v2.7c6.2,1.3,10.8,6.7,10.8,13.2c0,7.5-6.1,13.5-13.5,13.5h-9.7v10.7v2.6
			c0.4,0,0.9,0,1.3,0c0.4,0,0.9,0,1.3,0c19.8-0.7,35.7-17,35.7-37c0-16.7-11.2-30.9-26.4-35.5c-0.9-0.3-1.7-0.5-2.6-0.7V38v16.3
			H60.2c-3.8,0-6.9,3.1-6.9,6.9c0,3.7,3,6.8,6.7,6.9v-2.6C57.7,65.4,55.9,63.5,55.9,61.2"/>
	</g>
</g>
</svg>
